<?xml version="1.0" encoding="utf-8"?>
<!-- Generator: Adobe Illustrator 20.1.0, SVG Export Plug-In . SVG Version: 6.00 Build 0)  -->
<svg version="1.1" xmlns="http://www.w3.org/2000/svg" xmlns:xlink="http://www.w3.org/1999/xlink" x="0px" y="0px"
	 viewBox="0 0 1589.8 546.1" style="enable-background:new 0 0 1589.8 546.1;" xml:space="preserve">
<style type="text/css">
	.st0{display:none;}
	.st1{display:inline;fill:#179B70;}
	.st2{display:inline;fill:none;stroke:#FFFFFF;stroke-width:2;stroke-miterlimit:10;}
	.st3{display:inline;fill:none;}
	.st4{display:inline;fill:#FFFFFF;}
	.st5{font-family:'MuseoSansCyrl-100';}
	.st6{font-size:60px;}
	.st7{letter-spacing:-3;}
	.st8{display:inline;fill:#FDFDFD;}
	.st9{font-size:20px;}
	.st10{display:inline;}
	.st11{fill:#323534;}
	.st12{fill:none;stroke:#FFFFFF;stroke-width:2;stroke-miterlimit:10;}
	.st13{fill:none;}
	.st14{fill:#FFFFFF;}
	.st15{fill:#FDFDFD;}
	.st16{fill:#EFEAEE;}
	.st17{fill:none;stroke:#179B70;stroke-miterlimit:10;}
	.st18{fill:none;stroke:#757575;stroke-width:2;stroke-miterlimit:10;}
	.st19{fill:#FFFFFF;stroke:#757575;stroke-miterlimit:10;}
	.st20{fill:#FDFDFD;stroke:#757575;stroke-miterlimit:10;}
</style>
<g id="Слой_1" class="st0">
	<rect x="300.9" class="st1" width="273" height="273"/>
	<path class="st2" d="M424,115.2c3.1,6,3.7,10.4,3.8,12.3c0,0.6,0.5,1.1,1.1,1l20.3-1.1c1.2-0.1,2.2-1,2.3-2.2
		c0.1-1.5,0.7-4.1,2.2-8.4c1.8-5.2,9.4-16,9.1-23.4c-1.1-12.3-15.5-21.7-24.7-21.8c-9.1-0.1-24.6,9.4-23.1,24.5
		C417.2,106.7,419.7,107.1,424,115.2z"/>
	<line class="st2" x1="428.7" y1="132.4" x2="451.2" y2="131"/>
	<line class="st2" x1="432.1" y1="135.3" x2="447.8" y2="134.5"/>
	<line class="st2" x1="436.7" y1="138.2" x2="443.2" y2="137.8"/>
	<rect x="397.4" y="64" transform="matrix(0.7071 -0.7071 0.7071 0.7071 53.9918 341.2676)" class="st2" width="83" height="83"/>
	<rect x="303.8" y="177.5" class="st3" width="267.2" height="202"/>
	<text transform="matrix(1 0 0 1 349.5322 219.5257)" class="st4 st5 st6 st7">Motion</text>
	<rect x="300.9" y="88.1" class="st3" width="273" height="202"/>
	<text transform="matrix(1 0 0 1 424.747 102.0811)" class="st8 st5 st9">Art</text>
	
		<image style="overflow:visible;" width="338" height="338" xlink:href="C:\Users\Roman\Downloads\connected-idea-logo_1103-983.jpg"  transform="matrix(0.69 -0.7238 0.7238 0.69 227.9059 87.4856)">
	</image>
	
		<image style="overflow:visible;" width="338" height="338" xlink:href="C:\Users\Roman\Downloads\connected-idea-logo_1103-983.jpg"  transform="matrix(0.69 -0.7238 0.7238 0.69 227.9059 362.5941)">
	</image>
	<g class="st10">
		<rect x="300.9" y="273.1" class="st11" width="273" height="273"/>
		<path class="st12" d="M424,390.3c3.1,6,3.7,10.4,3.8,12.3c0,0.6,0.5,1.1,1.1,1l20.3-1.1c1.2-0.1,2.2-1,2.3-2.2
			c0.1-1.5,0.7-4.1,2.2-8.4c1.8-5.2,9.4-16,9.1-23.4c-1.1-12.3-15.5-21.7-24.7-21.8c-9.1-0.1-24.6,9.4-23.1,24.5
			C417.2,381.8,419.7,382.2,424,390.3z"/>
		<line class="st12" x1="428.7" y1="407.5" x2="451.2" y2="406.1"/>
		<line class="st12" x1="432.1" y1="410.4" x2="447.8" y2="409.6"/>
		<line class="st12" x1="436.7" y1="413.3" x2="443.2" y2="412.9"/>
		
			<rect x="397.4" y="339.1" transform="matrix(0.7071 -0.7071 0.7071 0.7071 -140.5393 421.845)" class="st12" width="83" height="83"/>
		<rect x="303.8" y="452.6" class="st13" width="267.2" height="49.3"/>
		<text transform="matrix(1 0 0 1 349.5322 494.6342)" class="st14 st5 st6 st7">Motion</text>
		<rect x="300.9" y="363.2" class="st13" width="273" height="60.6"/>
		<text transform="matrix(1 0 0 1 424.747 377.1896)" class="st15 st5 st9">Art</text>
	</g>
	<g class="st10">
		<rect x="573.9" y="273.1" class="st16" width="273" height="273"/>
		<path class="st17" d="M697,390.3c3.1,6,3.7,10.4,3.8,12.3c0,0.6,0.5,1.1,1.1,1l20.3-1.1c1.2-0.1,2.2-1,2.3-2.2
			c0.1-1.5,0.7-4.1,2.2-8.4c1.8-5.2,9.4-16,9.1-23.4c-1.1-12.3-15.5-21.7-24.7-21.8s-24.6,9.4-23.1,24.5
			C690.2,381.8,692.7,382.2,697,390.3z"/>
		<line class="st17" x1="701.7" y1="406.5" x2="724.2" y2="405.1"/>
		<line class="st17" x1="705.1" y1="409.4" x2="720.8" y2="408.6"/>
		<line class="st17" x1="709.7" y1="412.3" x2="716.1" y2="411.9"/>
		
			<rect x="670.4" y="339.1" transform="matrix(0.7071 -0.7071 0.7071 0.7071 -60.5834 614.8755)" class="st17" width="83" height="83"/>
		<rect x="576.8" y="452.6" class="st13" width="267.2" height="61.3"/>
		<text transform="matrix(1 0 0 1 622.5186 494.6342)" class="st17 st5 st6 st7">Motion</text>
		<rect x="573.9" y="363.2" class="st13" width="273" height="63.6"/>
		<text transform="matrix(1 0 0 1 697.7334 377.1896)" class="st17 st5 st9">Art</text>
	</g>
	<g class="st10">
		<rect x="573.9" y="0.3" class="st14" width="273" height="273"/>
		<path class="st18" d="M697,115.6c3.1,6,3.7,10.4,3.8,12.3c0,0.6,0.5,1.1,1.1,1l20.3-1.1c1.2-0.1,2.2-1,2.3-2.2
			c0.1-1.5,0.7-4.1,2.2-8.4c1.8-5.2,9.4-16,9.1-23.4c-1.1-12.3-15.5-21.7-24.7-21.8s-24.6,9.4-23.1,24.5
			C690.2,107,692.7,107.4,697,115.6z"/>
		<line class="st18" x1="701.7" y1="132.7" x2="724.2" y2="131.3"/>
		<line class="st18" x1="705.1" y1="135.6" x2="720.8" y2="134.8"/>
		<line class="st18" x1="709.7" y1="138.5" x2="716.1" y2="138.1"/>
		
			<rect x="670.4" y="64.3" transform="matrix(0.7071 -0.7071 0.7071 0.7071 133.7224 534.3914)" class="st18" width="83" height="83"/>
		<rect x="576.8" y="177.8" class="st13" width="267.2" height="202"/>
		<text transform="matrix(1 0 0 1 622.5186 219.8438)" class="st19 st5 st6 st7">Motion</text>
		<rect x="573.9" y="88.4" class="st13" width="273" height="202"/>
		<text transform="matrix(1 0 0 1 697.7334 102.4002)" class="st20 st5 st9">Art</text>
	</g>
</g>
<g id="Слой_2">
	<path class="st14" d="M337.9,254.1c-10.9,0-20.4,4.2-15.5,13.6c4.9,9.4,10.2,2,15.5,10.4c7.4,11.7-16.9,35.6-20.3,49.7
		c-1.7-9.2-9.3-24.9-36.3-15.9c0,0,1.1-32.7-45.8-29.4c-0.4,0-0.8,0-1.2,0c3.8-1.3,9.5-3.5,11.3-5.7c2.4-2.9,4.4-9.7,4.9-11.5
		c2.9,0.1,6.8,0.1,7.4-0.4c1.4-1.1-0.2-13.9-0.2-13.9c5.1-1.5,4.6-16.9,4.6-16.9c20.1-0.8,15.1-1.6,15.1-1.6
		c-13.6-25.8-39.6-39.6-46.2-40.2s-15.1,1.8-25.8,11.5c-10.7,9.6-7.8,17.5-13.6,27.1c-3.5,5.9-7.6,13.3-10.3,18.1
		c-1.1-0.9-1.7-1.4-1.7-1.4s-9.7-48.8-48.4-45.2c0,0,1.5-19.1-24.7-18c0,0,19.6-33.5,28.3-27c8.7,6.5,23.4-2.2,25.6,5.4
		c2.2,7.6,3,10.4,12.8,4.9c9.8-5.4,6.3-23-5.7-24.8c0,0-27-3.1-37.6-3.1c-10.6,0-56.9,16.5-69.7,46.2c0,0-10.4,3.8-2.7,18
		c7.6,14.2,18.5,31.6,36,47.9c17.4,16.3,36.4,121.4,36.4,121.4l72.2-0.1l15.6-12.4c0,0,15.5,0.8,22.9-12c0,0,12,25.1,69.7,26.2
		c0,0,7.6,6.5,12,4.4c4.4-2.2,25.9-41,26.1-63.3c0.2-18,10.4-31.1,10.4-39.8C359.2,267.6,348.8,254.1,337.9,254.1z"/>
	<g>
		<path class="st14" d="M447,205.1h46.2c21.6,0,36.3,15.9,36.3,38.3S514.9,282,493.3,282h-19v34.4H447V205.1z M487.7,258.7
			c9.5,0,14.2-6.4,14.2-15.3c0-8.9-4.7-14.9-13.7-14.9h-13.9v30.2H487.7z"/>
		<path class="st14" d="M605.2,203.2c34.6,0,58.2,24.9,58.2,56.8c0,32.7-23.7,58.2-58.2,58.2S547,292.8,547,260.1
			C547,228.2,570.7,203.2,605.2,203.2z M605.2,293.4c17.6,0,30-14.3,30-33.3c0-18.2-12.5-31.9-30-31.9c-17.6,0-30,13.7-30,31.9
			C575.2,279.1,587.6,293.4,605.2,293.4z"/>
		<path class="st14" d="M677.6,205.1h28.7l14,69.6c1.4,6.9,1.4,11.7,1.4,11.7h0.3c0,0,0.2-4.8,1.9-11.7l17.1-69.6h22l16.7,69.6
			c1.7,6.9,1.9,11.7,1.9,11.7h0.3c0,0,0-4.8,1.4-11.7l15.3-69.6h28.2l-28.2,111.3h-30.4l-14-56.2c-1.7-7.2-2.2-13.1-2.2-13.1h-0.3
			c0,0-0.5,5.9-2.2,13.1l-14,56.2h-30.7L677.6,205.1z"/>
		<path class="st14" d="M847.8,205.1h69.8v23.4H875v20.2H909v23.4H875v21h44.7v23.4h-71.9V205.1z"/>
		<path class="st14" d="M945.3,205.1H984c11.4,0,16.8,0.8,21.6,2.6c12.6,4.8,20.6,16.2,20.6,32.4c0,11.8-5.6,24.8-16.7,30.4v0.3
			c0,0,1.6,2,4.2,6.7l21.6,38.9h-30.4l-19.8-37.5h-12.8v37.5h-27.2V205.1z M984.3,255.6c8.7,0,14.2-4.8,14.2-13.7
			c0-5.6-1.4-9.8-6.5-11.8c-2.5-1.1-5.8-1.6-10.3-1.6h-9.2v27.1H984.3z"/>
		<path class="st14" d="M1101.3,205.1h40.9c22.3,0,37.8,10,37.8,29.1c0,9.3-4.5,18.8-12.9,23.7v0.3c12.8,3.9,17.4,15.3,17.4,25.1
			c0,24.3-20.2,33.2-42.4,33.2h-40.9V205.1z M1142.5,248.2c6.9,0,9.8-5,9.8-10.3c0-5.1-3-9.5-10.3-9.5h-13.5v19.8H1142.5z
			 M1144.9,293.1c7.9,0,11.8-5.4,11.8-11.7c0-6.2-3.7-11.4-11.7-11.4h-16.5v23H1144.9z"/>
		<path class="st14" d="M1262.3,203.2c34.6,0,58.2,24.9,58.2,56.8c0,32.7-23.7,58.2-58.2,58.2c-34.6,0-58.2-25.5-58.2-58.2
			C1204,228.2,1227.7,203.2,1262.3,203.2z M1262.3,293.4c17.6,0,30-14.3,30-33.3c0-18.2-12.5-31.9-30-31.9c-17.6,0-30,13.7-30,31.9
			C1232.2,279.1,1244.7,293.4,1262.3,293.4z"/>
		<path class="st14" d="M1345.9,205.1h39.5c35,0,57.5,20.4,57.5,55.4s-22.4,55.9-57.5,55.9h-39.5V205.1z M1384.3,293.1
			c18.8,0,30.4-11.2,30.4-32.5c0-21.2-12-32.1-30.4-32.1h-11.2v64.6H1384.3z"/>
		<path class="st14" d="M1486.5,270.8l-36.7-65.7h31l12.6,26.8c3.6,7.6,6.7,16,6.7,16h0.3c0,0,3.1-8.4,6.7-16l12.5-26.8h31
			l-36.7,65.7v45.6h-27.2V270.8z"/>
	</g>
</g>
</svg>
